# xmcd CD database file
#
# Track frame offsets:
#	150
#	11683
#	27657
#	41765
#	53101
#	67243
#	78274
#	93450
#	107686
#	121820
#	134973
#	147677
#	157816
#	171994
#	186827
#	200373
#	212166
#	227730
#	239133
#
# Disc length: 3339 seconds
#
# Revision: 0
# Processed by: cddbd v1.5.1PL2 Copyright (c) Steve Scherf et al.
# Submitted via: CDex 1.51
#
DISCID=220d0913
DTITLE=Mary Low Williams - Jazz In Paris-I Made You Love Paris
DYEAR=1954
DGENRE=Jazz
TTITLE0=Avalon
TTITLE1=Scratchin' in the Gravel
TTITLE2=Rock Me
TTITLE3=I Made You Love Paris
TTITLE4=Nancy Is in Love With the Colonel
TTITLE5=Swingin' for the Guys
TTITLE6=Club Français Blues
TTITLE7=Freight Train Blues
TTITLE8=Memories of You
TTITLE9=Leg'n Lou
TTITLE10=Mary Lou Blues
TTITLE11=Between the Devil and the Deep Blue Sea
TTITLE12=There's a Small Hotel
TTITLE13=En Ce Temps-Là
TTITLE14=Lover
TTITLE15=Carioca
TTITLE16=Nicole
TTITLE17=Tire Tire l'Aiguille
TTITLE18=Autumn in New York
EXTD=YEAR: 1954
EXTT0=
EXTT1=
EXTT2=
EXTT3=
EXTT4=
EXTT5=
EXTT6=
EXTT7=
EXTT8=
EXTT9=
EXTT10=
EXTT11=
EXTT12=
EXTT13=
EXTT14=
EXTT15=
EXTT16=
EXTT17=
EXTT18=
PLAYORDER=
